<svg xmlns="http://www.w3.org/2000/svg" viewBox="0 0 120 120" role="img" aria-label="León TOP 20">
  <rect width="120" height="120" rx="26" fill="#6b2c8f"/>
  <g transform="translate(19 8) scale(0.83)" fill="#ffffff" fill-rule="evenodd">
    <path d="M6 42 L15 36 C12 27 19 19 28 21 L31 11 L37 19 L43 10 L47 19 L55 14 L54 26 C61 31 62 41 56 47 C64 50 67 60 62 68 C70 64 74 51 70 45 C75 47 78 55 73 63 C83 61 85 46 76 40 C80 33 78 23 69 23 C73 32 70 39 63 40 C66 33 60 28 53 31 C57 38 55 47 48 50 C57 53 62 64 61 78 L67 80 L62 102 L71 104 L60 108 L57 88 C55 82 49 79 45 80 L46 98 L38 100 L41 82 C36 78 33 71 33 63 C29 68 22 69 18 64 L27 62 C21 58 20 49 26 45 C20 46 13 42 15 36 Z M27 30 a2.1 2.1 0 1 1 0.1 0 Z"/>
  </g>
</svg>
